<?xml version="1.0" encoding="utf-8"?>
<!-- Generator: Adobe Illustrator 24.0.2, SVG Export Plug-In . SVG Version: 6.00 Build 0)  -->
<svg version="1.1" id="Layer_1" xmlns="http://www.w3.org/2000/svg" xmlns:xlink="http://www.w3.org/1999/xlink" x="0px" y="0px"
	 viewBox="0 0 1000 1000" style="enable-background:new 0 0 1000 1000;" xml:space="preserve">
<style type="text/css">
	.st0{fill:#FFFFFF;}
	.st1{fill:#D16DC8;}
	.st2{fill:none;stroke:#D16DC8;stroke-width:80;stroke-miterlimit:10;}
	.st3{fill:#FFFFFF;stroke:#3FA9F5;stroke-width:20;stroke-miterlimit:10;}
	.st4{fill:#3FA9F5;}
</style>
<g>
	<path class="st0" d="M454,781c-69.18,0-134.22-26.94-183.14-75.86S195,591.18,195,522s26.94-134.22,75.86-183.14
		S384.82,263,454,263s134.22,26.94,183.14,75.86S713,452.82,713,522s-26.94,134.22-75.86,183.14S523.18,781,454,781z"/>
	<path class="st1" d="M454,303c58.5,0,113.49,22.78,154.86,64.14S673,463.5,673,522s-22.78,113.49-64.14,154.86S512.5,741,454,741
		s-113.49-22.78-154.86-64.14S235,580.5,235,522s22.78-113.49,64.14-154.86S395.5,303,454,303 M454,223
		c-165.13,0-299,133.87-299,299s133.87,299,299,299s299-133.87,299-299S619.13,223,454,223L454,223z"/>
</g>
<g>
	<circle class="st0" cx="454" cy="522" r="131"/>
	<path class="st1" d="M454,431c50.18,0,91,40.82,91,91s-40.82,91-91,91s-91-40.82-91-91S403.82,431,454,431 M454,351
		c-94.44,0-171,76.56-171,171s76.56,171,171,171s171-76.56,171-171S548.44,351,454,351L454,351z"/>
</g>
<g>
	<line class="st2" x1="348" y1="522" x2="560" y2="522"/>
</g>
<line class="st2" x1="0" y1="90" x2="1000" y2="92"/>
<line class="st2" x1="0" y1="927" x2="1000" y2="923"/>
<line class="st2" x1="732" y1="522" x2="1000" y2="522"/>
<line class="st2" x1="176" y1="522" x2="0" y2="522"/>
<line class="st3" x1="413" y1="572" x2="623.51" y2="568.1"/>
<g>
	<g>
		<path class="st4" d="M491.52,576.44c7.66,0,7.67-11.91,0-11.91C483.86,564.54,483.84,576.44,491.52,576.44L491.52,576.44z"/>
	</g>
</g>
<g>
	<g>
		<path class="st4" d="M603.13,573.94c7.66,0,7.67-11.91,0-11.91C595.47,562.03,595.46,573.94,603.13,573.94L603.13,573.94z"/>
	</g>
</g>
<g>
	<g>
		<path class="st4" d="M527.89,575.19c7.66,0,7.67-11.91,0-11.91C520.23,563.28,520.21,575.19,527.89,575.19L527.89,575.19z"/>
	</g>
</g>
<g>
	<g>
		<path class="st0" d="M544.05,573.52c7.66,0,7.67-11.91,0-11.91C536.38,561.62,536.37,573.52,544.05,573.52L544.05,573.52z"/>
	</g>
</g>
<g>
	<g>
		<path class="st0" d="M409.82,577.47c15.57,8.35,33.44,6.59,50.47,5.93c19.11-0.75,38.22-1.5,57.33-2.25
			c38.88-1.52,77.76-3.05,116.65-4.57c7.64-0.3,7.68-12.21,0-11.91c-37.56,1.47-75.13,2.94-112.69,4.41
			c-18.45,0.72-36.9,1.45-55.36,2.17c-16.18,0.63-35.49,3.92-50.39-4.07C409.08,563.57,403.06,573.84,409.82,577.47L409.82,577.47z"
			/>
	</g>
</g>
<g>
	<g>
		<path class="st0" d="M409.99,587.74c11.31-0.71,22.35,0.38,33.28,3.4c7.4,2.04,10.55-9.44,3.17-11.48
			c-11.88-3.28-24.14-4.6-36.44-3.83C402.38,576.31,402.33,588.22,409.99,587.74L409.99,587.74z"/>
	</g>
</g>
<g>
	<g>
		<path class="st0" d="M412.19,572.6c15.32,6.78,31.68,7.43,48.2,7.75c18.6,0.36,37.21,0.62,55.81,0.8
			c37.21,0.35,74.43,0.34,111.64-0.03c7.66-0.08,7.68-11.98,0-11.91c-35.88,0.35-71.77,0.38-107.65,0.06
			c-17.94-0.16-35.88-0.4-53.82-0.73c-16.03-0.29-33.18,0.4-48.17-6.24C411.25,559.25,405.19,569.5,412.19,572.6L412.19,572.6z"/>
	</g>
</g>
<g>
	<g>
		<path class="st0" d="M399.67,578.8c77.26,4.31,154.67,5.43,232.02,3.36c7.65-0.21,7.68-12.11,0-11.91
			c-77.35,2.08-154.76,0.96-232.02-3.36C392.01,566.46,392.04,578.37,399.67,578.8L399.67,578.8z"/>
	</g>
</g>
<g>
	<g>
		<path class="st0" d="M418.92,575.73c66.39,6.27,133.17,7.63,199.76,4.05c2.35-0.13,5.36-1.74,5.74-4.37
			c0.67-4.62,0.58-8.83-1.03-13.26c-0.91-2.49-2.97-4.37-5.74-4.37c-78.24-0.02-156.49-0.03-234.73-0.05c-7.66,0-7.67,11.9,0,11.91
			c78.24,0.02,156.49,0.03,234.73,0.05c-1.91-1.46-3.83-2.91-5.74-4.37c0.84,2.3,1.4,4.46,1.03,6.93c1.91-1.46,3.83-2.91,5.74-4.37
			c-66.59,3.58-133.37,2.22-199.76-4.05C411.3,563.11,411.35,575.02,418.92,575.73L418.92,575.73z"/>
	</g>
</g>
<g>
	<g>
		<path class="st0" d="M625.25,568.37c7.66,0,7.67-11.91,0-11.91C617.59,556.46,617.58,568.37,625.25,568.37L625.25,568.37z"/>
	</g>
</g>
<g>
	<g>
		<path class="st0" d="M380.34,570.94c7.66,0,7.67-11.91,0-11.91C372.68,559.04,372.67,570.94,380.34,570.94L380.34,570.94z"/>
	</g>
</g>
<g>
	<g>
		<path class="st0" d="M443.5,592.86c7.66,0,7.67-11.91,0-11.91C435.84,580.95,435.83,592.86,443.5,592.86L443.5,592.86z"/>
	</g>
</g>
<g>
	<g>
		<path class="st0" d="M648.46,565.79c7.66,0,7.67-11.91,0-11.91C640.8,553.88,640.78,565.79,648.46,565.79L648.46,565.79z"/>
	</g>
</g>
<g>
	<g>
		<path class="st0" d="M379.05,568.37c7.66,0,7.67-11.91,0-11.91C371.39,556.46,371.38,568.37,379.05,568.37L379.05,568.37z"/>
	</g>
</g>
</svg>
